<svg data-v-423bf9ae="" xmlns="http://www.w3.org/2000/svg" viewBox="0 0 630 107" class="iconLeft"><!----><!----><!----><g data-v-423bf9ae="" id="7ac1e071-1388-496e-9e4c-780ddeb922de" fill="#22C4D6" transform="matrix(5.68181848526001,0,0,5.68181848526001,100.66548919677734,4.402127742767334)"><path d="M0.28 3.64L0.28 3.64Q0.28 3.51 0.40 3.49Q0.52 3.47 0.99 3.47L0.99 3.47L2.21 3.47Q2.56 3.47 3.50 3.44Q4.44 3.42 4.94 3.42L4.94 3.42Q5.91 3.42 6.87 3.71Q7.84 4.00 8.65 4.56Q9.46 5.11 9.97 6.00Q10.47 6.89 10.47 7.98L10.47 7.98Q10.47 8.96 10.34 9.68Q10.21 10.40 9.90 10.93Q9.59 11.45 9.28 11.78Q8.97 12.11 8.44 12.56L8.44 12.56Q8.02 12.89 7.22 13.19Q6.43 13.48 5.59 13.48L5.59 13.48Q5.50 13.48 4.16 13.45Q2.81 13.41 2.23 13.41L2.23 13.41Q1.74 13.41 1.32 13.45Q0.90 13.48 0.83 13.48L0.83 13.48Q0.49 13.48 0.49 13.30L0.49 13.30Q0.49 13.19 0.54 13.14Q0.59 13.09 0.75 13.05Q0.91 13.01 0.98 12.98L0.98 12.98Q1.20 12.88 1.39 12.61Q1.58 12.33 1.58 12.07L1.58 12.07Q1.58 11.28 1.59 10.07Q1.60 8.85 1.60 8.27L1.60 8.27Q1.60 7.77 1.59 6.70Q1.58 5.63 1.58 4.72L1.58 4.72Q1.58 4.48 1.35 4.23Q1.12 3.99 0.84 3.98L0.84 3.98Q0.64 3.96 0.55 3.95Q0.46 3.93 0.37 3.86Q0.28 3.78 0.28 3.64ZM2.76 11.47L2.76 11.47Q2.76 11.73 2.77 11.90Q2.77 12.07 2.82 12.21Q2.87 12.35 2.90 12.40Q2.93 12.46 3.07 12.53Q3.21 12.60 3.28 12.62Q3.36 12.64 3.61 12.71Q3.86 12.78 4.03 12.82L4.03 12.82Q4.52 12.96 5.05 12.96L5.05 12.96L5.33 12.96Q6.29 12.96 6.96 12.69Q7.63 12.42 8.25 11.83L8.25 11.83Q9.28 10.84 9.28 8.61L9.28 8.61Q9.28 7.49 8.84 6.58Q8.40 5.67 7.69 5.13Q6.97 4.59 6.15 4.30Q5.32 4.02 4.48 4.02L4.48 4.02Q4.10 4.02 3.93 4.02Q3.75 4.02 3.52 4.05Q3.29 4.09 3.21 4.11Q3.14 4.13 3.02 4.25Q2.91 4.37 2.89 4.45Q2.87 4.54 2.83 4.78Q2.80 5.03 2.80 5.21Q2.80 5.39 2.80 5.80L2.80 5.80Q2.80 6.10 2.79 7.24Q2.77 8.39 2.77 8.48L2.77 8.48Q2.77 9.32 2.77 10.30Q2.76 11.28 2.76 11.47ZM11.37 3.70L11.37 3.70Q11.37 3.47 11.77 3.47L11.77 3.47L14.10 3.47Q14.42 3.47 14.84 3.45Q15.26 3.43 15.50 3.43L15.50 3.43Q16.76 3.43 17.65 4.07Q18.55 4.70 18.55 5.78L18.55 5.78Q18.55 6.50 18.28 7.03Q18.00 7.57 17.68 7.81Q17.35 8.05 17.07 8.22Q16.80 8.40 16.80 8.46L16.80 8.46Q16.80 8.62 17.98 10.27Q19.15 11.91 19.59 12.38L19.59 12.38Q20.12 13.03 20.87 13.03L20.87 13.03Q21.07 13.03 21.07 13.20L21.07 13.20Q21.07 13.41 20.90 13.48Q20.73 13.55 20.03 13.55L20.03 13.55Q19.38 13.55 18.83 13.23L18.83 13.23Q18.13 12.82 16.46 10.09L16.46 10.09Q16.37 9.94 16.32 9.87L16.32 9.87Q15.65 8.78 15.29 8.78L15.29 8.78L14.99 8.78L14.14 8.78Q13.97 8.78 13.94 8.92Q13.90 9.06 13.90 9.77L13.90 9.77Q13.90 10.44 13.90 10.88Q13.90 11.31 13.91 11.43Q13.92 11.55 13.92 11.63Q13.92 11.70 13.92 11.75L13.92 11.75Q13.92 12.32 14.18 12.63Q14.45 12.95 14.78 13.00Q15.11 13.05 15.37 13.11Q15.64 13.17 15.64 13.31L15.64 13.31Q15.64 13.54 15.39 13.54L15.39 13.54Q15.37 13.54 14.42 13.49Q13.47 13.44 13.38 13.44L13.38 13.44Q12.98 13.44 12.42 13.47Q11.86 13.50 11.84 13.50L11.84 13.50Q11.55 13.50 11.55 13.27L11.55 13.27Q11.55 13.12 11.73 13.05Q11.91 12.99 12.14 12.96Q12.36 12.94 12.54 12.66Q12.73 12.38 12.73 11.86L12.73 11.86Q12.73 11.49 12.73 9.90Q12.74 8.30 12.74 7.45L12.74 7.45Q12.74 6.58 12.73 5.86Q12.73 5.14 12.73 5.08L12.73 5.08Q12.73 4.56 12.52 4.29Q12.31 4.02 12.05 3.98Q11.79 3.95 11.58 3.89Q11.37 3.84 11.37 3.70ZM13.90 5.54L13.90 5.94Q13.90 7.38 13.92 7.72Q13.93 8.06 14.01 8.12L14.01 8.12Q14.22 8.25 14.62 8.25L14.62 8.25L14.76 8.25L15.16 8.25Q16.35 8.25 16.86 7.70Q17.37 7.15 17.37 6.30L17.37 6.30Q17.37 5.43 16.70 4.72Q16.02 4.00 14.64 4.00L14.64 4.00Q14.13 4.00 14.01 4.28Q13.90 4.55 13.90 5.54L13.90 5.54ZM21.42 3.71L21.42 3.71Q21.42 3.50 21.67 3.50L21.67 3.50Q21.76 3.50 22.06 3.53Q22.36 3.56 22.41 3.56L22.41 3.56Q22.62 3.56 22.99 3.54Q23.35 3.53 23.46 3.53L23.46 3.53Q23.73 3.53 23.80 3.72L23.80 3.72Q23.97 4.09 24.40 5.03Q24.84 5.98 25.09 6.54Q25.35 7.10 25.76 7.97Q26.17 8.83 26.42 9.37Q26.67 9.91 26.94 10.46Q27.22 11.00 27.36 11.26Q27.51 11.52 27.55 11.52Q27.59 11.52 27.64 11.47Q27.69 11.42 27.74 11.34Q27.79 11.26 27.83 11.17Q27.86 11.09 27.92 10.96Q27.99 10.82 28.01 10.75L28.01 10.75L29.82 7.03Q30.13 6.40 30.37 5.89Q30.60 5.39 30.74 5.08Q30.88 4.77 30.98 4.55Q31.08 4.33 31.13 4.21Q31.18 4.10 31.20 4.04Q31.22 3.98 31.23 3.94Q31.25 3.91 31.26 3.88Q31.28 3.85 31.31 3.75Q31.35 3.65 31.38 3.62Q31.42 3.58 31.52 3.54Q31.63 3.50 31.79 3.50L31.79 3.50Q32.06 3.50 32.29 3.51Q32.52 3.53 33.00 3.53L33.00 3.53Q33.24 3.53 33.24 3.71L33.24 3.71Q33.24 3.85 33.15 3.91Q33.05 3.98 32.77 4.02L32.77 4.02Q32.42 4.06 32.28 4.37Q32.14 4.68 32.14 5.54L32.14 5.54Q32.14 7.43 32.23 8.97Q32.31 10.50 32.31 10.89L32.31 10.89Q32.31 12.29 32.54 12.68Q32.76 13.06 33.47 13.06L33.47 13.06Q33.57 13.06 33.65 13.13Q33.73 13.20 33.73 13.26L33.73 13.26Q33.73 13.34 33.71 13.38Q33.70 13.43 33.66 13.45Q33.61 13.48 33.57 13.48Q33.53 13.48 33.42 13.48L33.42 13.48Q33.00 13.48 32.59 13.45Q32.19 13.43 31.99 13.43L31.99 13.43Q31.60 13.43 31.18 13.46Q30.76 13.50 30.53 13.50L30.53 13.50Q30.28 13.50 30.28 13.30L30.28 13.30Q30.28 13.17 30.39 13.12Q30.51 13.06 30.65 13.05Q30.80 13.03 30.96 12.87Q31.12 12.71 31.19 12.39L31.19 12.39Q31.25 12.11 31.25 11.49L31.25 11.49Q31.25 11.05 31.23 10.42Q31.21 9.79 31.18 9.19Q31.15 8.60 31.12 8.07Q31.09 7.55 31.08 7.21L31.08 7.21L31.05 6.87Q31.05 6.27 30.93 6.27L30.93 6.27Q30.91 6.27 30.88 6.29Q30.86 6.30 30.84 6.33Q30.81 6.36 30.79 6.38Q30.76 6.41 30.73 6.47Q30.70 6.54 30.67 6.58Q30.65 6.62 30.60 6.70Q30.56 6.78 30.53 6.83Q30.51 6.89 30.46 6.99Q30.41 7.08 30.38 7.15L30.38 7.15L28.43 11.09Q28.10 11.77 27.72 12.56L27.72 12.56Q27.47 13.09 27.41 13.18Q27.36 13.27 27.27 13.27L27.27 13.27Q27.15 13.27 27.06 13.15Q26.98 13.03 26.81 12.63Q26.64 12.22 26.52 11.96L26.52 11.96Q23.95 6.75 23.88 6.65L23.88 6.65Q23.84 6.59 23.80 6.59L23.80 6.59Q23.69 6.59 23.69 7.15L23.69 7.15Q23.67 8.25 23.62 9.31Q23.56 10.37 23.56 10.85L23.56 10.85L23.56 11.48Q23.56 11.84 23.58 12.04Q23.60 12.24 23.70 12.49Q23.79 12.75 24.02 12.89Q24.26 13.03 24.64 13.08L24.64 13.08Q24.71 13.08 24.77 13.13Q24.84 13.17 24.84 13.23L24.84 13.23Q24.84 13.38 24.79 13.43Q24.75 13.48 24.63 13.48L24.63 13.48Q24.35 13.48 23.79 13.45Q23.23 13.43 23.17 13.43L23.17 13.43Q23.14 13.43 22.76 13.45Q22.39 13.47 22.02 13.47L22.02 13.47Q21.91 13.47 21.86 13.45Q21.81 13.44 21.77 13.39Q21.73 13.34 21.73 13.24L21.73 13.24Q21.73 13.13 21.85 13.09Q21.98 13.05 22.14 13.04Q22.30 13.03 22.50 12.82Q22.69 12.60 22.79 12.18L22.79 12.18Q22.86 11.87 22.96 9.74Q23.06 7.62 23.06 6.59L23.06 6.59Q23.06 5.19 22.79 4.66Q22.51 4.13 21.60 3.92L21.60 3.92Q21.42 3.88 21.42 3.71ZM34.62 10.82L34.62 10.82Q34.62 10.53 34.82 10.53L34.82 10.53Q35 10.53 35.04 10.67L35.04 10.67Q35.18 11.00 35.30 11.25Q35.42 11.49 35.69 11.85Q35.95 12.21 36.26 12.44Q36.57 12.67 37.05 12.84Q37.53 13.01 38.11 13.01L38.11 13.01Q39.16 13.01 39.80 12.45Q40.43 11.90 40.43 11.00L40.43 11.00Q40.43 10.35 40.00 9.90Q39.56 9.46 39.00 9.27Q38.44 9.09 37.58 8.77Q36.72 8.46 36.18 8.13L36.18 8.13Q34.90 7.38 34.90 6.08L34.90 6.08Q34.90 4.83 35.80 4.08Q36.71 3.33 38.15 3.33L38.15 3.33Q38.68 3.33 39.42 3.56Q40.15 3.79 40.17 3.79L40.17 3.79Q40.21 3.79 40.32 3.74Q40.43 3.68 40.49 3.68L40.49 3.68Q40.67 3.68 40.70 3.79L40.70 3.79Q40.99 5.49 40.99 5.70L40.99 5.70Q40.99 6.09 40.80 6.09L40.80 6.09Q40.67 6.09 40.60 5.89L40.60 5.89Q40.43 5.49 40.27 5.24Q40.11 4.98 40.04 4.91Q39.97 4.84 39.68 4.58L39.68 4.58Q38.92 3.91 37.84 3.91L37.84 3.91Q36.97 3.91 36.39 4.33Q35.80 4.75 35.80 5.46L35.80 5.46Q35.80 6.09 36.14 6.50Q36.48 6.90 37.06 7.13Q37.63 7.35 38.26 7.55Q38.89 7.74 39.60 8.09Q40.31 8.44 40.77 8.93L40.77 8.93Q41.33 9.53 41.33 10.43L41.33 10.43Q41.33 11.90 40.39 12.76Q39.45 13.62 38.07 13.62L38.07 13.62Q37.10 13.62 36.51 13.52Q35.92 13.41 35.31 13.09L35.31 13.09Q35.13 12.98 34.87 12.00Q34.62 11.02 34.62 10.82ZM45.40 3.70L45.40 3.70Q45.40 3.50 45.79 3.50L45.79 3.50Q45.86 3.50 46.33 3.53Q46.80 3.56 47.33 3.56L47.33 3.56Q47.46 3.56 47.77 3.54Q48.09 3.53 48.24 3.53L48.24 3.53Q48.57 3.53 48.64 3.56Q48.71 3.58 48.71 3.68L48.71 3.68Q48.71 3.77 48.57 3.84Q48.43 3.91 48.28 4.02Q48.13 4.14 48.13 4.34L48.13 4.34Q48.13 4.52 48.18 4.71Q48.23 4.90 48.40 5.29Q48.57 5.68 48.74 6.08Q48.92 6.47 49.31 7.34Q49.71 8.22 50.09 9.07L50.09 9.07Q51.27 11.77 51.49 11.77L51.49 11.77Q51.56 11.77 52.30 10.08Q53.03 8.39 53.75 6.54Q54.46 4.69 54.46 4.35L54.46 4.35Q54.46 4.13 54.30 4.01Q54.14 3.89 53.96 3.87Q53.77 3.85 53.61 3.80Q53.45 3.75 53.45 3.64L53.45 3.64Q53.45 3.54 53.50 3.52Q53.55 3.50 53.75 3.50L53.75 3.50Q53.79 3.50 54.07 3.51Q54.35 3.51 54.63 3.51L54.63 3.51Q54.88 3.51 55.20 3.50Q55.51 3.49 55.87 3.49L55.87 3.49Q56.14 3.49 56.14 3.68L56.14 3.68Q56.14 3.78 56.05 3.85Q55.96 3.92 55.83 3.98Q55.71 4.03 55.54 4.21Q55.37 4.40 55.24 4.69L55.24 4.69L52.12 11.80Q51.79 12.56 51.46 13.34L51.46 13.34Q51.31 13.72 51.27 13.79Q51.23 13.86 51.16 13.86L51.16 13.86Q50.90 13.86 50.53 12.89L50.53 12.89Q50.16 11.98 49.08 9.65L49.08 9.65Q48.55 8.48 48.12 7.50Q47.68 6.52 47.49 6.06Q47.31 5.60 47.15 5.24Q46.98 4.87 46.90 4.72Q46.82 4.56 46.70 4.44L46.70 4.44Q46.47 4.17 46.21 4.06Q45.95 3.95 45.79 3.96Q45.63 3.96 45.51 3.91Q45.40 3.86 45.40 3.70ZM54.71 13.33L54.71 13.33Q54.71 13.13 54.92 13.06L54.92 13.06Q55.37 12.89 55.71 12.31Q56.04 11.73 57.37 8.83L57.37 8.83Q58.74 5.87 59.79 3.63L59.79 3.63Q59.89 3.42 59.97 3.36Q60.05 3.30 60.21 3.30L60.21 3.30Q60.34 3.30 60.38 3.36Q60.42 3.42 60.56 3.82L60.56 3.82Q60.65 4.06 60.71 4.23Q60.77 4.40 60.91 4.77Q61.05 5.15 61.22 5.56L61.22 5.56Q61.67 6.66 62.77 9.22Q63.87 11.77 63.97 11.98L63.97 11.98Q64.20 12.46 64.50 12.71Q64.79 12.95 65.01 12.97Q65.23 12.99 65.37 13.04Q65.52 13.09 65.52 13.26L65.52 13.26Q65.52 13.47 65.14 13.47L65.14 13.47Q64.99 13.47 64.54 13.43Q64.09 13.38 63.88 13.38L63.88 13.38Q63.62 13.38 63.20 13.41Q62.78 13.44 62.58 13.44L62.58 13.44Q62.15 13.44 62.03 13.40Q61.91 13.37 61.91 13.24L61.91 13.24Q61.91 13.15 62.02 13.08Q62.13 13.02 62.26 13.00Q62.38 12.98 62.50 12.87Q62.61 12.77 62.61 12.59L62.61 12.59Q62.61 12.28 62.26 11.33Q61.91 10.37 61.67 9.93L61.67 9.93Q61.54 9.69 61.10 9.69L61.10 9.69Q61.03 9.69 60.48 9.70Q59.93 9.72 59.40 9.72L59.40 9.72L58.66 9.72Q58.03 9.72 57.87 9.79Q57.71 9.86 57.58 10.12L57.58 10.12Q57.50 10.30 57.30 10.70Q57.11 11.10 57.04 11.26Q56.97 11.41 56.86 11.65Q56.76 11.90 56.72 12.05Q56.69 12.19 56.69 12.31L56.69 12.31Q56.69 12.63 56.85 12.80Q57.01 12.96 57.20 12.98Q57.40 13.01 57.56 13.06Q57.72 13.12 57.72 13.26L57.72 13.26Q57.72 13.36 57.68 13.40Q57.64 13.45 57.48 13.45L57.48 13.45Q57.40 13.45 57.00 13.45Q56.60 13.44 56.32 13.44L56.32 13.44Q56.01 13.44 55.63 13.47Q55.24 13.50 55.12 13.50L55.12 13.50Q54.71 13.50 54.71 13.33ZM58.23 8.71L58.23 8.71Q58.23 8.89 58.35 8.93Q58.48 8.97 58.94 8.97L58.94 8.97L59.37 8.97L60.70 8.96Q61.25 8.96 61.25 8.74L61.25 8.74Q61.25 8.55 60.56 7.01Q59.88 5.46 59.70 5.46L59.70 5.46Q59.57 5.46 58.90 7.01Q58.23 8.55 58.23 8.71ZM65.25 3.68L65.25 3.68Q65.25 3.61 65.27 3.58Q65.28 3.56 65.35 3.53Q65.42 3.50 65.58 3.50Q65.73 3.50 66.22 3.53Q66.71 3.56 67.16 3.56L67.16 3.56Q67.44 3.56 67.67 3.54Q67.90 3.53 68.47 3.53L68.47 3.53Q68.77 3.53 68.77 3.72L68.77 3.72Q68.77 3.85 68.67 3.88Q68.57 3.91 68.42 3.92Q68.28 3.93 68.13 4.02Q67.98 4.10 67.89 4.43Q67.79 4.76 67.79 5.32L67.79 5.32L67.79 5.71Q67.79 6.37 67.78 7.37Q67.77 8.37 67.77 8.74L67.77 8.74Q67.77 9.17 67.78 9.39Q67.79 9.62 67.82 10.04Q67.84 10.47 67.89 10.72Q67.94 10.96 68.05 11.32Q68.17 11.68 68.33 11.89Q68.49 12.10 68.73 12.35Q68.98 12.60 69.30 12.73Q69.62 12.87 70.06 12.96Q70.49 13.05 71.02 13.05L71.02 13.05Q71.47 13.05 71.72 13.03Q71.97 13.02 72.42 12.94Q72.86 12.87 73.12 12.72Q73.37 12.57 73.70 12.27Q74.03 11.97 74.21 11.54Q74.40 11.10 74.52 10.43Q74.65 9.76 74.65 8.90L74.65 8.90Q74.65 7.49 74.64 6.75Q74.63 6.01 74.63 5.94L74.63 5.94Q74.63 5.45 74.61 5.17Q74.59 4.89 74.47 4.55Q74.35 4.21 74.13 4.06L74.13 4.06Q73.99 3.96 73.77 3.93Q73.54 3.89 73.40 3.87Q73.26 3.85 73.26 3.75L73.26 3.75Q73.26 3.53 73.54 3.53L73.54 3.53Q73.63 3.53 74.09 3.54Q74.55 3.56 74.62 3.56L74.62 3.56Q74.96 3.56 75.33 3.54Q75.71 3.51 75.81 3.51L75.81 3.51Q76.10 3.51 76.10 3.70L76.10 3.70Q76.10 3.81 75.80 3.98Q75.50 4.16 75.43 4.30L75.43 4.30Q75.28 4.59 75.28 5.22L75.28 5.22Q75.28 5.32 75.28 5.62Q75.29 5.92 75.29 6.16L75.29 6.16Q75.29 8.85 75.07 10.28Q74.84 11.70 74.39 12.36Q73.93 13.01 73.02 13.40L73.02 13.40Q72.28 13.71 71.02 13.71L71.02 13.71Q68.68 13.71 67.70 12.81L67.70 12.81Q66.93 12.10 66.75 11.09Q66.57 10.09 66.57 7.64L66.57 7.64L66.57 7.41Q66.57 6.86 66.58 6.20Q66.60 5.54 66.60 5.39L66.60 5.39Q66.60 4.62 66.42 4.33Q66.23 4.05 65.56 3.95L65.56 3.95Q65.25 3.91 65.25 3.68ZM76.66 3.71L76.66 3.71Q76.66 3.46 77.04 3.46L77.04 3.46Q77.10 3.46 77.22 3.47Q77.35 3.49 77.42 3.49L77.42 3.49Q77.56 3.49 77.94 3.51Q78.33 3.54 78.64 3.54L78.64 3.54Q79.07 3.54 79.56 3.51Q80.05 3.49 80.11 3.49L80.11 3.49Q80.35 3.49 80.35 3.63L80.35 3.63Q80.35 3.82 80.18 3.88Q80.01 3.95 79.81 3.97Q79.60 3.99 79.42 4.28Q79.23 4.56 79.20 5.14L79.20 5.14Q79.17 5.68 79.13 8.19Q79.09 10.70 79.09 10.99L79.09 10.99L79.09 11.55Q79.09 12.56 79.42 12.66L79.42 12.66Q79.77 12.77 80.02 12.77L80.02 12.77Q81.07 12.77 81.86 12.67Q82.66 12.57 83.06 12.42Q83.45 12.28 83.72 12.10Q83.99 11.93 84.06 11.78Q84.14 11.63 84.22 11.54Q84.29 11.44 84.38 11.44L84.38 11.44Q84.55 11.44 84.55 11.68L84.55 11.68Q84.55 12.28 83.94 12.89Q83.34 13.51 82.89 13.51L82.89 13.51Q81.89 13.51 80.62 13.44Q79.35 13.37 79.04 13.37L79.04 13.37Q78.65 13.37 78.14 13.43Q77.63 13.48 77.29 13.48L77.29 13.48Q76.89 13.48 76.89 13.31L76.89 13.31Q76.89 13.22 76.97 13.15Q77.04 13.09 77.11 13.09L77.11 13.09Q77.32 13.09 77.52 12.95L77.52 12.95Q77.77 12.75 77.88 12.23Q77.99 11.70 77.99 10.21L77.99 10.21L77.99 8.47Q77.99 8.09 78.02 7.29Q78.04 6.50 78.04 6.05L78.04 6.05Q78.04 5.67 78.01 4.77L78.01 4.77Q77.99 4.37 77.66 4.14Q77.32 3.92 76.87 3.91L76.87 3.91Q76.73 3.91 76.70 3.86Q76.66 3.81 76.66 3.71ZM83.87 5.32L83.87 5.32Q83.87 4.76 84.01 3.88L84.01 3.88Q84.01 3.85 84.02 3.78Q84.03 3.71 84.03 3.69Q84.04 3.67 84.05 3.62Q84.06 3.57 84.07 3.55Q84.08 3.53 84.10 3.49Q84.13 3.46 84.15 3.44Q84.18 3.43 84.22 3.42Q84.27 3.40 84.32 3.39Q84.38 3.39 84.45 3.39L84.45 3.39Q84.67 3.39 85.63 3.44Q86.59 3.50 88.40 3.50L88.40 3.50Q91.48 3.50 92.71 3.43L92.71 3.43Q92.72 3.43 92.76 3.42Q92.79 3.42 92.81 3.42L92.81 3.42Q92.96 3.42 93.02 3.50Q93.07 3.58 93.07 3.65L93.07 3.65Q93.07 3.75 93.11 4.24Q93.16 4.73 93.16 4.79L93.16 4.79Q93.16 5.14 93.11 5.23Q93.07 5.32 92.93 5.32L92.93 5.32Q92.82 5.32 92.78 5.15L92.78 5.15Q92.67 4.75 92.58 4.60Q92.50 4.45 92.22 4.34Q91.94 4.23 91.36 4.23L91.36 4.23L89.54 4.23Q89.21 4.23 89.13 4.36Q89.05 4.49 89.05 5.12L89.05 5.12L89.05 5.81Q89.05 7.69 89.03 9.11Q89.01 10.54 89.01 10.93L89.01 10.93Q89.01 11.13 89.00 11.43Q89.00 11.73 89.00 11.84L89.00 11.84Q89.00 12.45 89.19 12.64L89.19 12.64Q89.38 12.81 89.60 12.90Q89.82 12.99 89.98 13.01Q90.15 13.02 90.26 13.08Q90.37 13.13 90.37 13.26L90.37 13.26Q90.37 13.41 90.30 13.45Q90.23 13.50 90.03 13.50L90.03 13.50Q89.87 13.50 89.29 13.44Q88.72 13.38 88.48 13.38L88.48 13.38Q88.31 13.38 87.80 13.43Q87.29 13.48 87.05 13.48L87.05 13.48Q86.53 13.48 86.53 13.26L86.53 13.26Q86.53 13.12 86.62 13.07Q86.70 13.02 86.95 12.98Q87.19 12.95 87.26 12.94L87.26 12.94Q87.74 12.82 87.79 12.38L87.79 12.38Q87.93 11.14 87.93 7.08L87.93 7.08L87.92 4.58Q87.92 4.31 87.77 4.25Q87.61 4.19 86.86 4.19L86.86 4.19Q85.88 4.19 85.38 4.24Q84.88 4.30 84.80 4.35Q84.71 4.40 84.60 4.54L84.60 4.54Q84.48 4.70 84.40 4.91Q84.32 5.11 84.30 5.24Q84.28 5.38 84.22 5.47Q84.15 5.56 84.03 5.56L84.03 5.56Q83.87 5.56 83.87 5.32Z"></path></g><!----><g data-v-423bf9ae="" id="9f2e5932-177b-4f05-ae66-3ccd9a6f4fbc" transform="matrix(1.0868111848831177,0,0,1.0868111848831177,-13.255263328552246,-0.23894432187080383)" stroke="none" fill="#22C4D6" style="--darkreader-inline-stroke: none;" data-darkreader-inline-stroke=""><g clip-rule="evenodd"><path d="M12.983 10.59l17.018 88.223-5.872-59.049 29.021-1.892-.054-9.883L64.549 1 53.622 18.977z"></path><path d="M59.389 54.548l5.16-53.541-8.74 39.716-19.612 1.045 1.57 20.462-7.766 36.583 12.057-39.899z"></path><path d="M62.8 67.182l.549-10.453-15.979 3.755-.032 11.797-17.337 26.532 21.68-27.616zM65.711 62.394l14.841-4.731 1.509-12.532-15.899 2.095zM72.07 44.502l10.988-1.417 1.581-10.278-8.079-.373L64.549 1l8.43 30.967z"></path><path d="M87.413 31.294l1.256-9.506-9.544-2.694L64.549 1l14.483 22.437-.422 7z"></path></g></g><!----></svg>